{"title":"The Dark Knight (2008) 1080p BluRay {1920x1080p} {Dual Audio} {6","uid":9492318,"size":4044336394,"categoryP":"video","categoryS":"hd___movies","magnet":"?xt=urn:btih:6f772c263d9bc51ba601fcfebb8cac114be9323d&amp;dn=The+Dark+Knight+%282008%29+1080p+BluRay+%7B1920x1080p%7D+%7BDual+Audio%7D+%7B6&amp;tr=udp%3A%2F%2Ftracker.openbittorrent.com%3A80&amp;tr=udp%3A%2F%2Fopen.demonii.com%3A1337&amp;tr=udp%3A%2F%2Ftracker.coppersurfer.tk%3A6969&amp;tr=udp%3A%2F%2Fexodus.desync.com%3A6969","seeders":1,"leechers":2,"uploader":"SaNRiM","files":-1,"time":1390020682,"description":"Storyline\n\nBatman raises the stakes in his war on crime. With the help of Lieutenant Jim Gordon and District Attorney Harvey Dent, Batman sets out to dismantle the remaining criminal organizations that plague the city streets. The partnership proves to be effective, but they soon find themselves prey to a reign of chaos unleashed by a rising criminal mastermind known to the terrified citizens of Gotham as The Joker.\n\n\n\nTorrent Info\n\nGeneral\n\nUnique ID : 181817088682407631921929323469469052868 (0x88C8B2929A3A19B4A36C779F8946EFC4)\nComplete name : The Dark Knight (2008) 1080p BluRay {1920x1080p} {Dual Audio} {6Ch.} [Hindi DD 5.1-English DD 5.1] ~SaNRiM~.mkv\nFormat : Matroska\nFormat version : Version 4 / Version 2\nFile size : 3.75 GiB\nDuration : 2h 32mn\nOverall bit rate : 3 527 Kbps\nMovie name : Enjoy the best ~SaNRiM~ Find me on facebook\nEncoded date : UTC 2014-01-14 10:29:44\nWriting library : libebml v1.3.0 + libmatroska v1.4.1\n\n\nVideo\n\nID : 1\nFormat : AVC\nFormat/Info : Advanced Video Codec\nFormat profile : &lt;a class=&quot;__cf_email__&quot; href=&quot;/cdn-cgi/l/email-protection&quot; data-cfemail=&quot;a2eacbc5cae2ee968c92&quot;&gt;[email&amp;#160;protected]&lt;/a&gt;&lt;script cf-hash='f9e31' type=&quot;text/javascript&quot;&gt;\n/* &lt;![CDATA[ */!function(){try{var t=&quot;currentScript&quot;in document?document.currentScript:function(){for(var t=document.getElementsByTagName(&quot;script&quot;),e=t.length;e--;)if(t[e].getAttribute(&quot;cf-hash&quot;))return t[e]}();if(t&amp;&amp;t.previousSibling){var e,r,n,i,c=t.previousSibling,a=c.getAttribute(&quot;data-cfemail&quot;);if(a){for(e=&quot;&quot;,r=parseInt(a.substr(0,2),16),n=2;a.length-n;n+=2)i=parseInt(a.substr(n,2),16)^r,e+=String.fromCharCode(i);e=document.createTextNode(e),c.parentNode.replaceChild(e,c)}}}catch(u){}}();/* ]]&gt; */&lt;/script&gt;\nFormat settings, CABAC : Yes\nFormat settings, ReFrames : 4 frames\nCodec ID : V_MPEG4/ISO/AVC\nDuration : 2h 32mn\nBit rate : 2 247 Kbps\nWidth : 1 920 pixels\nHeight : 1 080 pixels\nDisplay aspect ratio : 16:9\nFrame rate mode : Constant\nFrame rate : 23.976 fps\nColor space : YUV\nChroma subsampling : 4:2:0\nBit depth : 8 bits\nScan type : Progressive\nBits/(Pixel*Frame) : 0.045\nStream size : 2.31 GiB (62%)\nTitle : ~SaNRiM~\nWriting library : x264 core 128 r2216 198a7ea\nLanguage : English\nDefault : Yes\nForced : No\n\n\nAudio #1\n\nID : 2\nFormat : AC-3\nFormat/Info : Audio Coding 3\nMode extension : CM (complete main)\nFormat settings, Endianness : Big\nCodec ID : A_AC3\nDuration : 2h 32mn\nBit rate mode : Constant\nBit rate : 640 Kbps\nChannel(s) : 6 channels\nChannel positions : Front: L C R, Side: L R, LFE\nSampling rate : 48.0 KHz\nBit depth : 16 bits\nCompression mode : Lossy\nStream size : 697 MiB (18%)\nTitle : ~SaNRiM~\nLanguage : Hindi\nDefault : No\nForced : No\n\n\nAudio #2\n\nID : 3\nFormat : AC-3\nFormat/Info : Audio Coding 3\nMode extension : CM (complete main)\nFormat settings, Endianness : Big\nCodec ID : A_AC3\nDuration : 2h 32mn\nBit rate mode : Constant\nBit rate : 640 Kbps\nChannel(s) : 6 channels\nChannel positions : Front: L C R, Side: L R, LFE\nSampling rate : 48.0 KHz\nBit depth : 16 bits\nCompression mode : Lossy\nStream size : 697 MiB (18%)\nTitle : ~SaNRiM~\nLanguage : English\nDefault : No\nForced : No\n\n\n\nScreens\n &lt;a href=&quot;\nhttp://someimage.com/CvDGfQv&quot; rel=&quot;nofollow&quot; target=&quot;_NEW&quot;&gt;\nhttp://someimage.com/CvDGfQv&lt;/a&gt; &lt;a href=&quot;\nhttp://someimage.com/wgaSvSn&quot; rel=&quot;nofollow&quot; target=&quot;_NEW&quot;&gt;\nhttp://someimage.com/wgaSvSn&lt;/a&gt; &lt;a href=&quot;\nhttp://someimage.com/5iIvCw6&quot; rel=&quot;nofollow&quot; target=&quot;_NEW&quot;&gt;\nhttp://someimage.com/5iIvCw6&lt;/a&gt; &lt;a href=&quot;\nhttp://someimage.com/bopCzdb&quot; rel=&quot;nofollow&quot; target=&quot;_NEW&quot;&gt;\nhttp://someimage.com/bopCzdb&lt;/a&gt; &lt;a href=&quot;\nhttp://someimage.com/7YYzjs6&quot; rel=&quot;nofollow&quot; target=&quot;_NEW&quot;&gt;\nhttp://someimage.com/7YYzjs6&lt;/a&gt; &lt;a href=&quot;\nhttp://someimage.com/p9sMfsv&quot; rel=&quot;nofollow&quot; target=&quot;_NEW&quot;&gt;\nhttp://someimage.com/p9sMfsv&lt;/a&gt; &lt;a href=&quot;\nhttp://someimage.com/BbIxjhS&quot; rel=&quot;nofollow&quot; target=&quot;_NEW&quot;&gt;\nhttp://someimage.com/BbIxjhS&lt;/a&gt; &lt;a href=&quot;\nhttp://someimage.com/LDPNR4f&quot; rel=&quot;nofollow&quot; target=&quot;_NEW&quot;&gt;\nhttp://someimage.com/LDPNR4f&lt;/a&gt; &lt;a href=&quot;\nhttp://someimage.com/h8hfW6F&quot; rel=&quot;nofollow&quot; target=&quot;_NEW&quot;&gt;\nhttp://someimage.com/h8hfW6F&lt;/a&gt; &lt;a href=&quot;\nhttp://someimage.com/6pBloUY&quot; rel=&quot;nofollow&quot; target=&quot;_NEW&quot;&gt;\nhttp://someimage.com/6pBloUY&lt;/a&gt; &lt;a href=&quot;\nhttp://someimage.com/ucjWdSj&quot; rel=&quot;nofollow&quot; target=&quot;_NEW&quot;&gt;\nhttp://someimage.com/ucjWdSj&lt;/a&gt; &lt;a href=&quot;\nhttp://someimage.com/m02YtIB&quot; rel=&quot;nofollow&quot; target=&quot;_NEW&quot;&gt;\nhttp://someimage.com/m02YtIB&lt;/a&gt; &lt;a href=&quot;\nhttp://someimage.com/bDHiBOo&quot; rel=&quot;nofollow&quot; target=&quot;_NEW&quot;&gt;\nhttp://someimage.com/bDHiBOo&lt;/a&gt; &lt;a href=&quot;\nhttp://someimage.com/oKTk0kw&quot; rel=&quot;nofollow&quot; target=&quot;_NEW&quot;&gt;\nhttp://someimage.com/oKTk0kw&lt;/a&gt; &lt;a href=&quot;\nhttp://someimage.com/e4kz7ul&quot; rel=&quot;nofollow&quot; target=&quot;_NEW&quot;&gt;\nhttp://someimage.com/e4kz7ul&lt;/a&gt; &lt;a href=&quot;\nhttp://someimage.com/acvm2ob&quot; rel=&quot;nofollow&quot; target=&quot;_NEW&quot;&gt;\nhttp://someimage.com/acvm2ob&lt;/a&gt; &lt;a href=&quot;\nhttp://someimage.com/mXDoqax&quot; rel=&quot;nofollow&quot; target=&quot;_NEW&quot;&gt;\nhttp://someimage.com/mXDoqax&lt;/a&gt; &lt;a href=&quot;\nhttp://someimage.com/SOL6pug&quot; rel=&quot;nofollow&quot; target=&quot;_NEW&quot;&gt;\nhttp://someimage.com/SOL6pug&lt;/a&gt; &lt;a href=&quot;\nhttp://someimage.com/fFCkANK&quot; rel=&quot;nofollow&quot; target=&quot;_NEW&quot;&gt;\nhttp://someimage.com/fFCkANK&lt;/a&gt; &lt;a href=&quot;\nhttp://someimage.com/x7VxahK&quot; rel=&quot;nofollow&quot; target=&quot;_NEW&quot;&gt;\nhttp://someimage.com/x7VxahK&lt;/a&gt; &lt;a href=&quot;\nhttp://someimage.com/3vMgifu&quot; rel=&quot;nofollow&quot; target=&quot;_NEW&quot;&gt;\nhttp://someimage.com/3vMgifu&lt;/a&gt; &lt;a href=&quot;\nhttp://someimage.com/zfRhUse&quot; rel=&quot;nofollow&quot; target=&quot;_NEW&quot;&gt;\nhttp://someimage.com/zfRhUse&lt;/a&gt; &lt;a href=&quot;\nhttp://someimage.com/aMlfhOq&quot; rel=&quot;nofollow&quot; target=&quot;_NEW&quot;&gt;\nhttp://someimage.com/aMlfhOq&lt;/a&gt; &lt;a href=&quot;\nhttp://someimage.com/Hr04pMs&quot; rel=&quot;nofollow&quot; target=&quot;_NEW&quot;&gt;\nhttp://someimage.com/Hr04pMs&lt;/a&gt; &lt;a href=&quot;\nhttp://someimage.com/qT3jfFp&quot; rel=&quot;nofollow&quot; target=&quot;_NEW&quot;&gt;\nhttp://someimage.com/qT3jfFp&lt;/a&gt;\n\n\n\n\n                   If you like my work please comment\n                          Any request? Just PM me\n                       Please seed long after download\n                         Thank you &amp; enjoy the best\n                                 ~SaNRiM~","torrent":{"xt":"urn:btih:6f772c263d9bc51ba601fcfebb8cac114be9323d","amp;dn":"The+Dark+Knight+%282008%29+1080p+BluRay+%7B1920x1080p%7D+%7BDual+Audio%7D+%7B6","amp;tr":["udp%3A%2F%2Ftracker.openbittorrent.com%3A80","udp%3A%2F%2Fopen.demonii.com%3A1337","udp%3A%2F%2Ftracker.coppersurfer.tk%3A6969","udp%3A%2F%2Fexodus.desync.com%3A6969"],"infoHash":"6f772c263d9bc51ba601fcfebb8cac114be9323d","infoHashBuffer":{"type":"Buffer","data":[111,119,44,38,61,155,197,27,166,1,252,254,187,140,172,17,75,233,50,61]},"announce":[],"urlList":[]}}